<svg width="200" height="193" viewBox="0 0 200 193" fill="none" xmlns="http://www.w3.org/2000/svg">
<g clip-path="url(#clip0_25_356)">
<path d="M167.298 19.7653H33.9289C26.5632 19.7653 20.592 25.7364 20.592 33.1022V166.471C20.592 173.837 26.5632 179.808 33.9289 179.808H167.298C174.664 179.808 180.635 173.837 180.635 166.471V33.1022C180.635 25.7364 174.664 19.7653 167.298 19.7653Z" fill="#E9E7C4"/>
<path fill-rule="evenodd" clip-rule="evenodd" d="M167.698 62.47C167.694 62.9599 167.536 63.4361 167.245 63.8303C167.14 64.0032 166.996 64.1489 166.825 64.2555C166.653 64.3621 166.459 64.4267 166.258 64.4438C163.61 64.6057 161.085 65.6158 159.056 67.3246C156.512 70.0264 154.551 73.2223 153.294 76.7138L122.913 146.706C122.717 147.346 122.157 147.666 121.232 147.666C120.896 147.667 120.566 147.579 120.275 147.41C119.985 147.241 119.744 146.998 119.579 146.706L102.534 110.243L82.9555 146.706C82.7876 147.002 82.5429 147.248 82.2472 147.417C81.9514 147.586 81.6156 147.672 81.275 147.666C80.9225 147.702 80.5674 147.63 80.2574 147.458C79.9474 147.286 79.6974 147.024 79.5412 146.706L49.7199 76.7138C48.4495 73.2844 46.4364 70.1783 43.825 67.618C41.3173 65.7363 38.3122 64.6326 35.1827 64.4438C35.0035 64.434 34.8294 64.3802 34.6759 64.2871C34.5224 64.1941 34.3942 64.0647 34.3025 63.9104C34.1563 63.7533 34.0432 63.5685 33.9699 63.3669C33.8966 63.1653 33.8645 62.951 33.8757 62.7367C33.8757 61.5897 34.1958 61.0296 34.836 61.0296C37.6233 60.979 40.4113 61.0948 43.1849 61.3764C45.7088 61.6562 48.2476 61.7809 50.7869 61.7498C53.6552 61.7828 56.523 61.6492 59.3758 61.3497C62.4164 61.0589 65.4711 60.9431 68.5249 61.0029C69.1651 61.0029 69.4852 61.5631 69.4852 62.71C69.4852 63.857 69.2985 64.4172 68.8984 64.4172C66.6529 64.4732 64.4733 65.1874 62.63 66.4711C61.8925 66.9953 61.2952 67.6928 60.8905 68.5021C60.4859 69.3114 60.2863 70.2077 60.3094 71.1123C60.4098 72.362 60.7638 73.5782 61.3497 74.6866L86.0229 131.582L100 104.588L86.8765 76.7138C85.4663 73.225 83.5226 69.9765 81.115 67.0845C79.1889 65.4599 76.7774 64.5216 74.2598 64.4172C73.9664 64.4172 73.7263 64.2305 73.4596 63.8837C73.1945 63.5505 73.0531 63.1358 73.0595 62.71C73.0595 61.5631 73.3529 61.0029 73.913 61.0029C76.3537 60.9854 78.7936 61.1011 81.2217 61.3497C83.4963 61.6212 85.7861 61.746 88.0768 61.7231C90.6108 61.7231 93.1182 61.5897 95.6255 61.3497C98.1328 61.1096 100.96 61.0029 103.628 61.0029C104.268 61.0029 104.588 61.5631 104.588 62.71C104.588 63.857 104.401 64.4172 104.001 64.4172C98.6663 64.7906 95.9989 66.311 95.9989 69.0317C96.239 71.0221 96.8738 72.9446 97.8661 74.6866L106.695 92.6114L115.284 76.2337C116.324 74.451 116.935 72.4513 117.071 70.3921C117.071 66.6578 114.404 64.6839 109.069 64.4438C108.589 64.4438 108.349 63.857 108.349 62.7367C108.345 62.3279 108.466 61.9277 108.696 61.5897C108.945 61.2163 109.185 61.0296 109.416 61.0296C111.759 60.9924 114.103 61.1082 116.431 61.3764C118.608 61.6455 120.8 61.7702 122.993 61.7498C124.776 61.7718 126.558 61.6738 128.328 61.4564C131.342 61.163 133.876 61.0296 135.903 61.0296C136.383 61.0296 136.596 61.5097 136.596 62.47C136.596 63.4302 136.17 64.4438 135.289 64.4438C132.604 64.6372 130.021 65.5594 127.821 67.1112C124.915 69.8826 122.529 73.1531 120.779 76.7671L109.362 98.3462L124.833 130.702L147.693 76.367C148.424 74.6797 148.831 72.87 148.893 71.0323C148.893 67.0668 146.226 64.9595 140.891 64.7106C140.411 64.7106 140.171 64.1238 140.171 63.0035C140.171 61.8832 140.544 61.3497 141.371 61.3497C143.679 61.3099 145.987 61.4257 148.28 61.6964C150.334 61.9279 152.4 62.0526 154.468 62.0699C156.463 61.946 158.449 61.7055 160.416 61.3497C162.817 61.1096 164.951 61.0029 166.871 61.0029C167.431 61.0296 167.698 61.5097 167.698 62.47Z" fill="black"/>
<path d="M170.472 103.681L184.449 96.8258L190.771 116.671L176.794 123.526L170.472 103.681Z" fill="#DC0816"/>
<path d="M90.6108 10.5095L103.708 18.9384L89.9706 34.5959L76.8738 26.167L90.6108 10.5095Z" fill="#E679A6"/>
<path d="M111.47 160.123L123.339 169.965L114.937 188.103L103.067 178.261L111.47 160.123Z" fill="#E679A6"/>
<path d="M85.3561 164.631C84.7229 164.316 83.9907 164.266 83.3205 164.491C82.6503 164.716 82.0969 165.198 81.7818 165.831C79.8335 170.294 76.9334 174.278 73.2842 177.503C69.6351 180.729 65.3252 183.117 60.6562 184.503C54.3232 186.097 47.6296 185.388 41.7711 182.502C43.1027 181.634 44.3058 180.584 45.3454 179.381C47.3127 176.874 48.5046 173.848 48.7747 170.673C49.0449 167.498 48.3814 164.313 46.8658 161.51C45.3643 158.912 43.0462 156.884 40.2722 155.74C37.4983 154.597 34.4242 154.403 31.5284 155.188C28.5754 155.975 26.0433 157.877 24.4659 160.495C22.8885 163.112 22.389 166.24 23.0728 169.218C23.7905 173.14 25.4983 176.812 28.0341 179.888C22.0664 179.228 16.5177 176.501 12.35 172.179C10.4575 170.486 8.96927 168.389 7.99517 166.044C7.02106 163.699 6.58591 161.165 6.7218 158.629C6.75064 157.683 6.42897 156.759 5.81853 156.035C5.20809 155.312 4.35188 154.839 3.41425 154.708C2.79159 154.646 2.16866 154.824 1.67284 155.205C1.17703 155.587 0.845792 156.144 0.746872 156.762C0.731727 156.832 0.731727 156.905 0.746872 156.975C-1.17364 171.192 13.0702 184.423 26.5938 186.316C29.2955 186.619 32.0291 186.457 34.6759 185.836C39.6193 189.225 45.3139 191.358 51.267 192.051C56.5862 192.565 61.9505 191.777 66.8978 189.757C71.6206 187.883 75.8979 185.039 79.454 181.409C83.01 177.78 85.7657 173.445 87.5434 168.685C87.7774 167.857 87.68 166.971 87.2716 166.214C86.8633 165.457 86.1762 164.889 85.3561 164.631ZM41.8245 171.859C41.2983 173.34 40.4621 174.691 39.372 175.822C38.2818 176.954 36.9627 177.84 35.5028 178.421C33.4489 176.5 28.781 171.486 29.5012 166.258C29.6173 165.447 29.9182 164.675 30.3807 163.999C30.8433 163.324 31.455 162.764 32.1686 162.363L33.1822 161.857C34.8115 161.27 36.5943 161.27 38.2235 161.857C42.0112 162.977 43.0782 168.045 41.8245 171.859Z" fill="#F90000"/>
<path d="M11.4431 73.5396L21.019 62.1766L33.529 79.7813L23.9798 91.1443L11.4431 73.5396Z" fill="#F0BC00"/>
<path d="M32.8087 28.8077H32.0085C31.1493 28.7085 30.3182 28.4404 29.563 28.0189C28.8078 27.5974 28.1433 27.0307 27.6079 26.3515C27.0724 25.6723 26.6765 24.8939 26.443 24.0611C26.2094 23.2284 26.1428 22.3577 26.247 21.4991V21.0723V20.8055H26.6737C29.6783 19.9194 32.8835 19.9846 35.8495 20.9923C38.9704 22.1659 38.8103 24.1664 38.5169 24.9667C38.0614 26.1062 37.2732 27.0822 36.255 27.7673C35.2369 28.4524 34.0359 28.815 32.8087 28.8077ZM27.1005 21.339C26.9703 22.0731 26.9865 22.8257 27.1482 23.5535C27.3099 24.2813 27.614 24.9699 28.0429 25.5798C28.4717 26.1896 29.017 26.7087 29.6472 27.107C30.2774 27.5053 30.9802 27.7751 31.7151 27.9008H32.0085C33.1825 28.0669 34.3784 27.8371 35.4072 27.2478C36.4361 26.6585 37.2393 25.7432 37.69 24.6466C38.0101 23.3662 37.2099 22.2993 35.4227 21.6058C32.7369 20.6915 29.8394 20.5987 27.1005 21.339Z" fill="#FCFCFC"/>
<path d="M54.5213 7.01521C46.1991 0.613503 32.2487 4.56122 25.7403 11.9499C24.5903 13.282 23.687 14.8085 23.0729 16.4577C18.9335 18.0686 15.2062 20.5838 12.1633 23.8197C4.50794 32.4086 3.38764 46.3857 10.963 55.4014C12.8302 57.6687 15.9243 54.6813 14.6173 52.414C10.6696 45.4788 9.09583 37.3433 13.7904 30.3014C15.8595 27.3164 18.6004 24.8588 21.7926 23.1262C21.7827 25.7729 22.7262 28.3348 24.4503 30.343C26.1744 32.3512 28.564 33.6715 31.1817 34.0624C40.0107 35.5828 48.0129 24.0064 40.3575 17.5514C38.9968 16.4474 37.4318 15.6225 35.7522 15.1236C34.0725 14.6247 32.3109 14.4617 30.5682 14.6439C36.143 9.70926 46.1991 7.57536 51.9072 11.5764C54.6813 13.4969 56.8419 8.80235 54.5213 7.01521ZM32.0353 28.3542C31.2382 28.2584 30.4678 28.0064 29.7681 27.6126C29.0685 27.2188 28.4533 26.691 27.9578 26.0593C27.4624 25.4275 27.0963 24.7043 26.8806 23.931C26.6648 23.1577 26.6036 22.3494 26.7005 21.5524C26.6876 21.4105 26.6876 21.2676 26.7005 21.1256C29.6264 20.2474 32.7557 20.3221 35.6362 21.339C41.3978 23.4729 36.4098 29.0211 32.0086 28.3542H32.0353Z" fill="#0154D5"/>
<path d="M148.333 12.1899L153.134 27.1806L134.969 25.1267L130.168 10.136L148.333 12.1899Z" fill="#0154D5"/>
<path d="M138.304 189.384C138.587 189.338 138.859 189.237 139.104 189.087C139.349 188.936 139.562 188.739 139.73 188.506C139.899 188.273 140.02 188.009 140.086 187.73C140.152 187.45 140.163 187.16 140.117 186.876C140.117 186.876 140.117 186.876 140.117 186.716C139.245 182.794 139.239 178.728 140.1 174.802C140.962 170.877 142.67 167.187 145.105 163.99C148.558 159.876 153.361 157.125 158.656 156.228C158.216 157.457 157.947 158.741 157.856 160.043C157.715 162.669 158.354 165.278 159.693 167.542C161.031 169.806 163.009 171.623 165.378 172.766C167.639 173.795 170.18 174.039 172.596 173.459C175.013 172.879 177.166 171.509 178.714 169.565C180.277 167.622 181.03 165.151 180.817 162.667C180.603 160.182 179.439 157.876 177.567 156.228C175.202 153.993 172.313 152.388 169.165 151.56C173.464 149.138 178.469 148.28 183.329 149.133C185.4 149.358 187.395 150.039 189.171 151.127C190.946 152.216 192.459 153.685 193.598 155.428C194.031 156.088 194.695 156.563 195.459 156.761C196.224 156.958 197.034 156.863 197.733 156.495C198.191 156.245 198.537 155.831 198.7 155.335C198.864 154.84 198.833 154.301 198.613 153.828V153.694C193.038 143.318 177.274 141.371 167.218 146.626C165.19 147.693 163.38 149.132 161.883 150.867C156.955 150.984 152.129 152.302 147.826 154.708C144.046 156.938 140.861 160.049 138.544 163.777C136.3 167.305 134.822 171.265 134.206 175.4C133.591 179.536 133.851 183.755 134.969 187.783C135.211 188.429 135.692 188.957 136.314 189.255C136.936 189.554 137.649 189.6 138.304 189.384ZM163.857 163.51C163.489 162.278 163.389 160.981 163.564 159.706C163.739 158.432 164.184 157.21 164.871 156.122C167.138 156.415 172.686 157.482 174.713 161.323C175.004 161.922 175.154 162.578 175.154 163.244C175.154 163.909 175.004 164.565 174.713 165.164C174.609 165.458 174.465 165.736 174.287 165.991C173.538 167.236 172.377 168.18 171.006 168.658C168.045 169.432 164.897 166.604 163.857 163.324V163.51Z" fill="#049DFF"/>
<path d="M182.982 54.5212C182.268 54.5103 181.584 54.2346 181.062 53.7477C180.193 52.6904 179.703 51.3732 179.669 50.0054C179.636 48.6377 180.06 47.2979 180.875 46.199C181.898 44.8094 183.43 43.8827 185.136 43.6226C186.841 43.3625 188.58 43.7903 189.971 44.8119L190.237 45.0253L190.451 45.1854V45.3454C189.804 48.4421 188.176 51.2481 185.81 53.3476C185.041 54.0686 184.036 54.4857 182.982 54.5212ZM181.515 46.7058C180.81 47.634 180.428 48.7676 180.428 49.9333C180.428 51.099 180.81 52.2327 181.515 53.1608C182.449 54.0677 183.756 53.881 185.196 52.654C187.276 50.7552 188.736 48.2732 189.384 45.5321C188.799 45.0586 188.125 44.7077 187.401 44.5005C186.678 44.2932 185.92 44.2339 185.173 44.326C184.426 44.4181 183.706 44.6598 183.054 45.0366C182.403 45.4134 181.834 45.9176 181.382 46.5191V46.7058H181.515Z" fill="white"/>
<path d="M194.719 31.4751C190.984 20.8056 179.488 13.0435 168.045 15.2307C165.217 15.7909 166.284 19.8986 168.872 19.8453C176.874 19.6853 184.503 22.326 188.344 29.7679C189.942 32.9996 190.747 36.5658 190.691 40.1707C188.416 38.8771 185.75 38.4508 183.186 38.9706C180.621 39.4903 178.332 40.921 176.741 42.9981C171.219 49.8 177.354 62.3366 186.583 58.8424C189.827 57.5262 192.423 54.9874 193.812 51.7738C195.386 58.9491 192.371 68.685 186.156 71.6991C183.196 73.1395 186.156 77.2473 188.824 76.127C198.373 72.0192 201.681 58.0955 198.426 48.9197C197.806 47.2571 196.904 45.7141 195.759 44.3585C196.363 40.0398 196.008 35.6409 194.719 31.4751ZM185.623 52.9741C180.982 56.8952 178.714 49.9066 181.382 46.4391C181.852 45.7919 182.446 45.2438 183.128 44.8264C183.811 44.409 184.569 44.1303 185.359 44.0064C186.15 43.8825 186.957 43.9158 187.735 44.1044C188.512 44.293 189.245 44.6331 189.891 45.1054L190.184 45.3454C189.543 48.3016 187.973 50.975 185.703 52.9741H185.623Z" fill="#028B3F"/>
<path d="M29.4746 104.801L39.7441 116.965L22.9396 126.807L12.6702 114.617L29.4746 104.801Z" fill="#049DFF"/>
</g>
<defs>
<clipPath id="clip0_25_356">
<rect width="200" height="192.558" fill="white"/>
</clipPath>
</defs>
</svg>
