<svg width="334" height="262" viewBox="0 0 334 262" fill="none" xmlns="http://www.w3.org/2000/svg">
<g clip-path="url(#clip0_25_293)">
<path d="M44.813 0C44.813 0 0 0 0 44.6808V216.879C0 216.879 0 261.56 44.813 261.56H289.182C289.182 261.56 333.995 261.56 333.995 216.879V44.6808C333.995 44.6808 333.995 0 289.182 0H44.813Z" fill="#EE8019"/>
<path d="M232.421 91.3929C243.026 91.3929 251.624 82.7955 251.624 72.1901C251.624 61.5847 243.026 52.9873 232.421 52.9873C221.815 52.9873 213.218 61.5847 213.218 72.1901C213.218 82.7955 221.815 91.3929 232.421 91.3929Z" fill="#E9E7C4"/>
<path d="M256.421 153.402C267.026 153.402 275.623 144.804 275.623 134.199C275.623 123.593 267.026 114.996 256.421 114.996C245.815 114.996 237.218 123.593 237.218 134.199C237.218 144.804 245.815 153.402 256.421 153.402Z" fill="#E9E7C4"/>
<path d="M231.216 214.613C241.822 214.613 250.419 206.015 250.419 195.41C250.419 184.804 241.822 176.207 231.216 176.207C220.611 176.207 212.014 184.804 212.014 195.41C212.014 206.015 220.611 214.613 231.216 214.613Z" fill="#E9E7C4"/>
<path d="M171.606 241.021C182.212 241.021 190.809 232.423 190.809 221.818C190.809 211.213 182.212 202.615 171.606 202.615C161.001 202.615 152.404 211.213 152.404 221.818C152.404 232.423 161.001 241.021 171.606 241.021Z" fill="#E9E7C4"/>
<path d="M110.4 215.014C121.005 215.014 129.603 206.417 129.603 195.811C129.603 185.206 121.005 176.608 110.4 176.608C99.7946 176.608 91.1973 185.206 91.1973 195.811C91.1973 206.417 99.7946 215.014 110.4 215.014Z" fill="#E9E7C4"/>
<path d="M170.123 159.158C183.664 159.158 194.642 147.975 194.642 134.179C194.642 120.384 183.664 109.201 170.123 109.201C156.582 109.201 145.604 120.384 145.604 134.179C145.604 147.975 156.582 159.158 170.123 159.158Z" fill="#0154D5"/>
<path d="M85.1913 152.604C95.7967 152.604 104.394 144.006 104.394 133.401C104.394 122.796 95.7967 114.198 85.1913 114.198C74.5859 114.198 65.9885 122.796 65.9885 133.401C65.9885 144.006 74.5859 152.604 85.1913 152.604Z" fill="#E9E7C4"/>
<path d="M109.999 91.7942C120.604 91.7942 129.201 83.1968 129.201 72.5914C129.201 61.986 120.604 53.3887 109.999 53.3887C99.3933 53.3887 90.7959 61.986 90.7959 72.5914C90.7959 83.1968 99.3933 91.7942 109.999 91.7942Z" fill="#E9E7C4"/>
<path d="M177.788 111.398L176.54 113.709L180.99 115.843L179.742 118.511L185.253 121.531L181.523 123.665L182.943 126.69L186.144 127.224L189.522 124.732L193.79 125.266L188.636 117.086L181.876 111.575L177.788 111.398Z" fill="#008B3F"/>
<path d="M168.542 109.44L166.765 114.952L163.916 116.553L159.653 112.999L163.03 109.974L168.542 109.44Z" fill="#008B3F"/>
<path d="M156.094 114.418L157.871 117.62L163.74 120.645L163.916 123.841L159.472 125.623L156.27 126.69L154.494 131.135L147.739 141.448L146.314 130.244L151.292 119.397L156.094 114.418Z" fill="#008B3F"/>
<path d="M149.158 143.578C149.692 143.578 156.447 143.401 156.447 143.401L159.472 144.826L158.762 148.737L162.849 152.824L166.051 157.802L157.871 155.492L149.516 147.846L149.158 143.578Z" fill="#008B3F"/>
<path d="M189.345 150.514L187.569 139.848L181.876 139.49L182.943 133.445L186.678 129.353L194.147 130.068L195.567 137.18L192.366 146.603L189.345 150.514Z" fill="#008B3F"/>
<path d="M110.131 216.595C98.7451 216.595 89.479 207.334 89.479 195.944C89.479 184.553 98.7402 175.292 110.131 175.292C121.521 175.292 130.782 184.553 130.782 195.944C130.782 207.334 121.516 216.595 110.131 216.595ZM110.131 178.723C100.635 178.723 92.9054 186.448 92.9054 195.949C92.9054 205.45 100.63 213.174 110.131 213.174C119.632 213.174 127.356 205.45 127.356 195.949C127.356 186.448 119.627 178.723 110.131 178.723Z" fill="black"/>
<path d="M170.94 241.667C159.555 241.667 150.289 232.406 150.289 221.015C150.289 209.63 159.55 200.364 170.94 200.364C182.326 200.364 191.592 209.625 191.592 221.015C191.592 232.401 182.326 241.667 170.94 241.667ZM170.94 203.79C161.444 203.79 153.715 211.514 153.715 221.015C153.715 230.516 161.439 238.241 170.94 238.241C180.436 238.241 188.165 230.516 188.165 221.015C188.165 211.514 180.436 203.79 170.94 203.79Z" fill="black"/>
<path d="M231.216 216.062C219.831 216.062 210.565 206.8 210.565 195.41C210.565 184.024 219.826 174.758 231.216 174.758C242.602 174.758 251.868 184.019 251.868 195.41C251.868 206.796 242.607 216.062 231.216 216.062ZM231.216 178.19C221.72 178.19 213.991 185.914 213.991 195.415C213.991 204.916 221.715 212.64 231.216 212.64C240.712 212.64 248.442 204.916 248.442 195.415C248.442 185.914 240.717 178.19 231.216 178.19Z" fill="black"/>
<path d="M255.755 154.719C244.369 154.719 235.103 145.458 235.103 134.067C235.103 122.677 244.364 113.416 255.755 113.416C267.14 113.416 276.406 122.677 276.406 134.067C276.406 145.458 267.14 154.719 255.755 154.719ZM255.755 116.842C246.259 116.842 238.529 124.566 238.529 134.067C238.529 143.568 246.254 151.292 255.755 151.292C265.251 151.292 272.98 143.568 272.98 134.067C272.98 124.566 265.251 116.842 255.755 116.842Z" fill="black"/>
<path d="M232.284 92.8419C220.898 92.8419 211.632 83.5807 211.632 72.1902C211.632 60.7998 220.893 51.5386 232.284 51.5386C243.669 51.5386 252.935 60.7998 252.935 72.1902C252.935 83.5807 243.669 92.8419 232.284 92.8419ZM232.284 54.965C222.787 54.965 215.058 62.6892 215.058 72.1902C215.058 81.6913 222.782 89.4155 232.284 89.4155C241.78 89.4155 249.509 81.6913 249.509 72.1902C249.509 62.6892 241.785 54.965 232.284 54.965Z" fill="black"/>
<path d="M110.131 93.3756C98.7451 93.3756 89.479 84.1144 89.479 72.7239C89.479 61.3384 98.7402 52.0723 110.131 52.0723C121.521 52.0723 130.782 61.3335 130.782 72.7239C130.782 84.1095 121.516 93.3756 110.131 93.3756ZM110.131 55.4987C100.635 55.4987 92.9054 63.2229 92.9054 72.7239C92.9054 82.225 100.63 89.9492 110.131 89.9492C119.632 89.9492 127.356 82.225 127.356 72.7239C127.356 63.2229 119.627 55.4987 110.131 55.4987Z" fill="black"/>
<path d="M85.5926 154.185C74.207 154.185 64.9409 144.924 64.9409 133.533C64.9409 122.148 74.2021 112.882 85.5926 112.882C96.9782 112.882 106.244 122.143 106.244 133.533C106.244 144.919 96.9782 154.185 85.5926 154.185ZM85.5926 116.308C76.0964 116.308 68.3674 124.032 68.3674 133.533C68.3674 143.035 76.0915 150.759 85.5926 150.759C95.0887 150.759 102.818 143.035 102.818 133.533C102.818 124.032 95.0887 116.308 85.5926 116.308Z" fill="black"/>
<path d="M170.94 65.5234C181.4 65.5234 189.879 57.0443 189.879 46.5849C189.879 36.1255 181.4 27.6465 170.94 27.6465C160.481 27.6465 152.002 36.1255 152.002 46.5849C152.002 57.0443 160.481 65.5234 170.94 65.5234Z" fill="black"/>
<path d="M170.94 67.2364C159.555 67.2364 150.289 57.9753 150.289 46.5848C150.289 35.1943 159.55 25.9331 170.94 25.9331C182.326 25.9331 191.592 35.1943 191.592 46.5848C191.592 57.9753 182.326 67.2364 170.94 67.2364ZM170.94 29.3644C161.444 29.3644 153.715 37.0886 153.715 46.5897C153.715 56.0907 161.439 63.8149 170.94 63.8149C180.436 63.8149 188.165 56.0907 188.165 46.5897C188.165 37.0886 180.436 29.3644 170.94 29.3644Z" fill="black"/>
<path d="M170.696 160.402C156.138 160.402 144.292 148.556 144.292 133.998C144.292 119.441 156.138 107.595 170.696 107.595C185.253 107.595 197.099 119.441 197.099 133.998C197.099 148.556 185.253 160.402 170.696 160.402ZM170.696 111.022C158.028 111.022 147.719 121.33 147.719 133.998C147.719 146.666 158.028 156.975 170.696 156.975C183.364 156.975 193.672 146.666 193.672 133.998C193.672 121.33 183.364 111.022 170.696 111.022Z" fill="black"/>
<path d="M155.11 115.109C155.776 116.568 156.632 117.791 157.944 118.741C158.977 119.485 160.162 119.867 161.307 120.386C162.1 120.748 163.167 121.223 163.089 122.133C162.976 123.46 161.439 124.096 160.313 124.238C158.982 124.404 157.396 124.018 156.26 124.918C155.604 125.437 155.438 126.23 155.306 127.009C155.188 127.718 154.953 128.399 154.606 129.035C153.196 131.629 150.705 133.416 149.114 135.883C148.174 137.337 147.508 139.006 147.562 140.763C147.611 142.393 148.463 144.111 150.132 144.572C150.763 144.748 151.312 144.219 151.38 143.612C151.454 142.951 151.038 142.281 150.396 142.09C150.068 141.992 149.926 141.708 149.833 141.292C149.74 140.881 149.804 140.269 149.917 139.789C150.235 138.438 151.062 137.254 151.919 136.191C153.735 133.94 156.06 131.977 157.024 129.162C157.239 128.536 157.283 127.875 157.46 127.244C157.611 126.695 158.174 126.72 158.664 126.71C160.211 126.681 161.713 126.671 163.094 125.868C164.278 125.178 165.159 123.895 165.213 122.5C165.267 121.086 164.547 119.877 163.422 119.069C162.379 118.325 161.131 117.992 159.976 117.468C158.674 116.876 157.372 115.824 156.725 114.517C156.51 114.081 156.094 113.68 155.57 113.871C155.091 114.032 154.914 114.678 155.11 115.109Z" fill="black"/>
<path d="M149.505 144.65C150.763 144.816 151.889 144.792 153.133 144.542C154.239 144.317 155.394 144.038 156.535 144.141C157.303 144.214 158.13 144.498 158.502 145.223C158.918 146.035 158.096 146.544 157.861 147.337C157.484 148.59 158.101 149.834 158.771 150.862C159.383 151.801 160.103 152.683 160.896 153.475C161.679 154.259 162.575 154.875 163.417 155.585C163.985 156.06 164.787 156.765 164.547 157.597C164.361 158.243 164.582 158.997 165.194 159.335C165.766 159.653 166.442 159.398 166.672 158.786C167.44 156.721 166.099 154.699 164.518 153.471C163.02 152.306 161.62 151.17 160.543 149.584C160.338 149.276 160.02 148.899 159.956 148.522C159.897 148.189 160.191 147.949 160.348 147.675C160.832 146.833 160.896 145.879 160.632 144.953C160.103 143.103 158.434 141.963 156.579 141.772C155.423 141.654 154.307 141.865 153.186 142.114C152.614 142.242 152.046 142.393 151.468 142.496C150.896 142.599 150.298 142.77 149.711 142.707C148.492 142.575 148.409 144.503 149.505 144.65Z" fill="black"/>
<path d="M194.162 128.79C191.832 127.787 189.243 127.86 186.79 128.345C185.704 128.56 184.602 128.922 183.785 129.705C182.86 130.596 182.463 131.8 182.032 132.975C181.283 135.016 179.795 137.816 181.181 139.911C181.827 140.89 182.845 141.316 183.98 141.37C184.783 141.404 185.88 141.081 186.624 141.478C187.397 141.889 187.505 143.441 187.691 144.214C188.063 145.78 188.435 147.347 188.802 148.908C188.949 149.525 189.365 150.171 190.084 150.137C190.701 150.107 191.186 149.417 191.044 148.81C190.745 147.557 190.447 146.304 190.143 145.051C189.869 143.906 189.664 142.716 189.277 141.605C188.934 140.626 188.327 139.662 187.373 139.187C186.501 138.751 185.537 138.776 184.592 138.82C184.113 138.844 183.075 138.972 182.904 138.482C182.693 137.88 183.099 136.901 183.325 136.279C183.731 135.158 184.108 134.023 184.553 132.917C184.911 132.021 185.439 131.424 186.35 131.076C187.407 130.68 188.587 130.572 189.703 130.503C190.936 130.425 192.228 130.445 193.393 130.919C194.813 131.507 195.41 129.329 194.162 128.79Z" fill="black"/>
<path d="M178.787 110.542C177.48 109.641 175.6 111.394 175.458 112.671C175.223 114.781 177.377 115.554 178.914 116.274C179.291 116.45 179.663 116.665 180.05 116.822C180.255 116.905 180.128 116.954 180.167 116.827C180.197 116.734 180.143 116.533 180.192 116.396C180.265 116.2 180.495 116.313 180.211 116.249C179.198 116.014 178.381 117.023 178.479 117.953C178.669 119.793 180.623 120.239 182.032 120.807C182.292 120.909 182.58 121.032 182.781 121.237C183.001 121.467 183.153 121.864 183.422 122.109C183.79 122.446 184.284 122.608 184.778 122.564C184.969 122.544 185.219 122.51 185.4 122.437C185.566 122.373 185.547 122.446 185.483 122.402C185.341 122.265 185.194 122.133 185.052 121.996C185.15 121.414 185.106 121.218 184.92 121.423C184.862 121.497 184.778 121.541 184.671 121.556C184.494 121.634 184.294 121.688 184.103 121.727C183.638 121.815 183.173 121.742 182.703 121.761C181.788 121.805 181.019 122.246 180.642 123.097C179.79 125.046 181.332 126.842 182.938 127.738C183.745 128.188 184.705 128.531 185.645 128.462C186.692 128.384 187.343 127.797 188.073 127.116C189.14 126.113 190.755 125.829 192.067 126.529C193.526 127.302 194.162 124.923 192.889 124.262C191.156 123.357 189.115 123.411 187.436 124.419C186.726 124.845 186.173 125.853 185.327 125.966C184.509 126.074 183.535 125.525 182.953 125.002C182.585 124.674 182.38 124.262 183.006 124.199C183.471 124.15 183.931 124.204 184.401 124.125C184.989 124.023 185.586 123.851 186.085 123.513C187.01 122.897 187.358 121.644 186.673 120.718C186.364 120.302 185.885 120.048 185.366 120.043C185.258 120.043 184.406 120.165 184.406 120.209C184.401 120.097 184.739 120.66 184.587 120.2C184.558 120.112 184.475 120.014 184.421 119.935C184.259 119.71 184.069 119.505 183.858 119.328C183.447 118.986 182.992 118.765 182.497 118.57C182.101 118.413 181.69 118.296 181.293 118.139C181.112 118.065 180.931 117.987 180.764 117.889C180.701 117.85 180.632 117.791 180.569 117.767C180.285 117.654 180.686 117.351 180.593 118.036C180.53 118.217 180.461 118.393 180.397 118.575C180.123 118.648 180.104 118.672 180.339 118.648C180.451 118.653 180.564 118.648 180.671 118.648C180.965 118.623 181.249 118.555 181.494 118.384C181.915 118.095 182.155 117.605 182.194 117.101C182.287 115.877 181.43 115.04 180.392 114.57C179.409 114.13 178.41 113.733 177.465 113.219C177.245 113.097 177.411 113.112 177.377 113.195C177.441 113.038 177.519 112.975 177.651 112.862C177.813 112.73 177.984 112.588 178.165 112.49C178.302 112.417 178.567 112.402 178.366 112.358C178.811 112.456 179.183 112.177 179.286 111.746C179.409 111.247 179.174 110.811 178.787 110.542Z" fill="black"/>
<path d="M158.586 113.166C159.491 114.297 160.343 115.594 161.503 116.48C162.717 117.405 164.259 117.698 165.717 117.194C167.054 116.729 168.072 115.603 168.601 114.316C168.87 113.67 169.017 112.98 169.276 112.329C169.575 111.58 170.04 110.895 170.319 110.146C170.725 109.069 169.261 107.586 168.415 108.746C168.003 109.314 167.705 110.013 167.416 110.655C167.166 111.203 166.976 111.771 166.799 112.343C166.501 113.313 166.075 114.208 165.12 114.678C164.239 115.114 163.226 115.05 162.462 114.424C161.527 113.655 160.769 112.598 159.971 111.692C159.633 111.306 158.982 111.311 158.644 111.678C158.292 112.06 158.253 112.75 158.586 113.166Z" fill="black"/>
<path d="M170.867 117.204C170.573 118.085 170.877 119.177 171.616 119.75C172.042 120.078 172.516 120.259 173.06 120.234C173.549 120.215 174.014 120.033 174.416 119.759C175.331 119.138 175.806 117.924 175.483 116.857C175.184 115.868 174.171 115.271 173.163 115.315C172.066 115.369 171.244 116.196 170.72 117.097C170.451 117.557 170.5 118.203 170.921 118.57C171.102 118.727 171.342 118.864 171.596 118.839C171.831 118.815 172.086 118.712 172.208 118.496C172.37 118.217 172.551 117.958 172.771 117.723C172.717 117.782 172.663 117.841 172.605 117.899C172.8 117.694 173.021 117.522 173.265 117.38C173.197 117.42 173.123 117.459 173.055 117.498C173.202 117.415 173.353 117.356 173.52 117.317C173.442 117.331 173.363 117.346 173.29 117.366C173.446 117.336 173.598 117.327 173.755 117.341C173.676 117.331 173.603 117.327 173.525 117.317C173.574 117.322 173.877 117.346 173.892 117.395C173.892 117.4 173.676 117.297 173.789 117.356C173.818 117.371 173.853 117.385 173.882 117.4C173.907 117.415 173.926 117.429 173.951 117.444C174.044 117.493 173.765 117.287 173.872 117.385C173.911 117.42 174.058 117.576 173.931 117.429C173.779 117.248 173.96 117.498 173.965 117.503C173.951 117.498 173.848 117.248 173.902 117.395C173.965 117.552 173.872 117.204 173.887 117.322C173.892 117.356 173.897 117.39 173.902 117.429C173.902 117.449 173.907 117.464 173.907 117.483C173.911 117.557 173.911 117.517 173.907 117.371C173.892 117.429 173.877 117.527 173.882 117.586C173.911 117.459 173.921 117.424 173.902 117.493C173.897 117.513 173.892 117.527 173.887 117.547C173.877 117.581 173.863 117.615 173.853 117.65C173.838 117.694 173.818 117.733 173.799 117.777C173.755 117.89 173.809 117.743 173.833 117.713C173.789 117.767 173.76 117.836 173.721 117.894C173.681 117.953 173.632 118.007 173.588 118.061C173.495 118.173 173.696 117.958 173.618 118.027C173.593 118.046 173.574 118.071 173.549 118.09C173.437 118.188 173.314 118.276 173.182 118.35C173.246 118.315 173.304 118.281 173.368 118.247C173.202 118.335 173.03 118.403 172.844 118.448C172.913 118.433 172.981 118.418 173.05 118.403C172.928 118.428 172.805 118.443 172.683 118.438C172.653 118.438 172.619 118.438 172.59 118.433C172.712 118.448 172.742 118.448 172.678 118.443C172.629 118.433 172.575 118.423 172.526 118.408C172.472 118.394 172.418 118.364 172.36 118.355C172.487 118.408 172.511 118.418 172.433 118.384C172.409 118.374 172.379 118.359 172.355 118.345C172.316 118.325 172.281 118.301 172.242 118.281C172.12 118.213 172.409 118.413 172.237 118.276C172.037 118.129 172.012 118.11 172.169 118.222C172.149 118.203 172.125 118.183 172.105 118.164C172.076 118.139 172.046 118.095 172.017 118.076C172.1 118.178 172.12 118.198 172.066 118.134C172.046 118.11 172.032 118.09 172.017 118.066C171.905 117.89 172.056 118.183 172.007 118.061C171.993 118.022 171.973 117.983 171.958 117.943C171.949 117.919 171.939 117.89 171.934 117.865C171.963 117.983 171.968 118.002 171.953 117.924C171.949 117.85 171.949 117.865 171.953 117.973C171.953 117.943 171.958 117.914 171.958 117.89C171.963 117.86 171.968 117.831 171.973 117.806C171.949 117.899 171.949 117.914 171.968 117.845C172.066 117.517 171.953 117.092 171.626 116.93C171.351 116.764 170.979 116.862 170.867 117.204Z" fill="black"/>
<path d="M19.7443 57.5689L18.3977 62.2749L30.7697 65.8151L32.1163 61.1091L19.7443 57.5689Z" fill="#E9E7C4"/>
<path d="M277.725 32.1228L276.961 36.9575L289.671 38.9676L290.436 34.1329L277.725 32.1228Z" fill="#E9E7C4"/>
<path d="M115.758 15.7009L111.328 17.7822L116.8 29.4297L121.23 27.3484L115.758 15.7009Z" fill="#E9E7C4"/>
<path d="M119.43 130.571L118.665 135.405L131.376 137.415L132.14 132.581L119.43 130.571Z" fill="#E9E7C4"/>
<path d="M204.789 173.388L204.084 171.621L203.296 170.784L200.457 169.829L198.954 166.589L198.562 165.522L197.226 165.145L198.562 160.436L202.302 161.493L203.511 164.807L204.006 165.86L206.027 166.54L208.284 168.948L209.336 171.572L204.789 173.388Z" fill="#E9E7C4"/>
<path d="M139.843 107.654L139.393 105.51L139.045 104.869L135.379 104.262L135.315 100.503L134.718 100.062L132.711 99.2593L134.522 94.7119L137.131 95.7496L140.171 98.016L140.205 100.101L142.188 100.434L144.038 103.787L144.635 106.651L139.843 107.654Z" fill="#E9E7C4"/>
<path d="M46.1493 234.609L41.3327 233.737L41.553 232.519L39.4824 229.562L41.7194 226.987L41.2544 225.71L41.274 222.763L41.8809 220.267L46.6388 221.422L46.164 223.365L46.1542 224.858L47.3094 228.02L45.6843 229.89L46.7318 231.383L46.1493 234.609Z" fill="#E9E7C4"/>
<path d="M68.5534 37.7742L63.7368 36.9078L63.957 35.6841L61.8865 32.7276L64.1235 30.1529L63.6584 28.8753L63.678 25.9285L64.285 23.4321L69.0428 24.5873L68.568 26.5306L68.5582 28.0236L69.7135 31.1857L68.0883 33.0555L69.1359 34.5485L68.5534 37.7742Z" fill="#E9E7C4"/>
<path d="M215.611 29.5409L211.353 27.1277L212.278 25.4977L211.637 22.9327L212.914 20.5293L212.18 18.2043L213.09 14.9834L217.804 16.3099L217.29 18.1259L218.201 21.0139L216.84 23.574L217.501 26.2123L215.611 29.5409Z" fill="#E9E7C4"/>
<path d="M247.59 244.11L245.999 239.479L247.874 238.833L249.43 236.748L251.907 235.833L253.268 233.811L255.994 232.23L258.452 236.464L256.699 237.482L255.089 239.876L252.485 240.84L250.889 242.974L247.59 244.11Z" fill="#E9E7C4"/>
<path d="M34.3526 122.887L32.7617 118.256L34.6365 117.615L36.1931 115.53L38.6699 114.614L40.0307 112.593L42.762 111.007L45.2144 115.246L43.462 116.259L41.8516 118.658L39.2475 119.617L37.6517 121.751L34.3526 122.887Z" fill="#E9E7C4"/>
<path d="M301.429 91.4227L300.293 86.6599L302.198 86.2047L303.886 84.2173L306.456 83.5418L307.934 81.6035L310.827 80.2476L312.908 84.6824L311.097 85.5292L309.329 87.8445L306.623 88.5591L304.89 90.5954L301.429 91.4227Z" fill="#E9E7C4"/>
<path d="M202.273 108.682L198.758 105.275L200.726 103.239L203.1 101.692L204.368 100.776L205.009 97.4724L208.622 95.813L210.668 100.258L209.336 100.869L208.808 103.62L205.822 105.759L203.864 107.037L202.273 108.682Z" fill="#E9E7C4"/>
<path d="M221.365 129.463L208.667 131.551L209.462 136.381L222.16 134.292L221.365 129.463Z" fill="#E9E7C4"/>
<path d="M123.91 250.684L119.211 249.303L120.337 245.475L123.377 244.046L124.537 242.788L125.814 240.13L128.433 238.25L131.287 242.23L129.686 243.375L128.634 245.568L126.328 248.07L124.414 248.97L123.91 250.684Z" fill="#E9E7C4"/>
<path d="M32.8447 183.638L29.1833 180.393L30.8036 178.562L32.4874 176.256L35.1209 174.352L37.3383 173.393L38.5424 171.861L42.3898 174.886L40.4221 177.392L37.5586 178.631L35.9873 179.766L34.5433 181.724L32.8447 183.638Z" fill="#E9E7C4"/>
<path d="M305.36 231.897L302.149 228.206L302.858 227.59L301.835 225.216L303.891 221.872L304.772 220.727L304.381 218.02L306.921 215.274L310.514 218.602L309.56 219.63L309.907 222.063L307.856 224.746L307.332 225.607L308.767 228.936L305.36 231.897Z" fill="#E9E7C4"/>
<path d="M169.633 95.9162L169.266 93.0037L169.898 89.1465L171.665 88.1773L170.578 86.0676L172.859 82.6657L174.832 80.6392L178.337 84.0558L176.672 85.7641L176.251 86.3907L178.209 90.1696L174.342 92.2891L174.21 93.0918L174.489 95.2994L169.633 95.9162Z" fill="#E9E7C4"/>
<path d="M133.94 174.768L129.921 171.973L131.717 169.389L134.214 168.42L135.565 166.941L137.816 165.258L139.251 164.562L139.721 162.991L144.41 164.401L143.318 168.023L140.372 169.457L138.869 170.583L137.063 172.571L134.879 173.412L133.94 174.768Z" fill="#E9E7C4"/>
<path d="M168.013 190.77L167.279 187.637L168.229 185.498L167.191 182.943L168.488 180.946L166.804 178.611L169.237 174.871L173.344 177.544L172.737 178.469L174.416 180.799L172.688 183.467L173.545 185.586L172.419 188.122L172.776 189.654L168.013 190.77Z" fill="#E9E7C4"/>
<path d="M302.183 171.298L301.806 169.472L300.284 167.431L300.108 165.184L298.62 163.818L297.313 161.053L296.681 158.498L301.434 157.328L301.948 159.403L302.633 160.857L304.841 162.883L305.051 165.639L306.378 167.411L306.975 170.304L302.183 171.298Z" fill="#E9E7C4"/>
<path d="M256.376 115.128V153.182L269.715 147.67L275.05 134.336L271.849 122.241L263.312 116.196L256.376 115.128Z" fill="black"/>
<path d="M86.7674 151.464L84.9318 113.459L71.8771 119.607L67.1926 133.186L70.9715 145.105L79.7921 150.734L86.7674 151.464Z" fill="black"/>
<path d="M217.192 207.706C217.192 207.706 231.784 207.731 237.242 200.961C242.7 194.186 239.709 179.883 239.709 179.883L249.004 186.32L249.391 202.498L239.078 212.821L224.691 213.502L217.192 207.706Z" fill="black"/>
<path d="M99.455 181.024C99.455 181.024 97.7614 195.518 103.87 201.71C109.974 207.907 124.532 206.571 124.532 206.571L117.077 215.073L100.963 213.609L91.8875 202.185L92.8566 187.813L99.455 181.024Z" fill="black"/>
<path d="M221.348 56.9867C221.348 56.9867 219.214 69.6107 227.217 76.723C236.444 84.922 248.197 82.0585 248.197 82.0585L251.041 68.3674L244.819 57.5202L233.439 52.8994L221.348 56.9867Z" fill="black"/>
<path d="M93.8944 81.7649C93.8944 81.7649 106.274 85.0298 114.081 77.7022C123.083 69.2535 121.286 57.2903 121.286 57.2903L107.909 53.2227L96.5425 58.4406L90.9084 69.3563L93.8944 81.7649Z" fill="black"/>
</g>
<defs>
<clipPath id="clip0_25_293">
<rect width="334" height="261.56" fill="white"/>
</clipPath>
</defs>
</svg>
