<?xml version="1.0" encoding="utf-8"?>
<svg xmlns="http://www.w3.org/2000/svg" xml:space="preserve" viewBox="0 0 681.61 533.78">
  <style>
    .st7{fill:#028b3f}.st8{fill:#dc0816}.st21{fill:#e7e5c2}
  </style>
  <g id="PAP">
    <path fill="#e679a6" d="M91.46 0S0 0 0 91.18V442.6s0 91.19 91.46 91.19h498.7s91.46 0 91.46-91.19V91.18S681.62 0 590.16 0H91.46z"/>
    <path d="M575.53 286.52c11.94-6.63 23.61-13.12 35.56-19.76 2.32 3.82 4.42 7.16 6.4 10.57 7.18 12.36 14.28 24.78 21.5 37.12 3.35 5.72 6.98 11.28 10.35 16.99 5.31 9 10.55 18.04 15.7 27.13.65 1.14.81 2.72.76 4.07-.23 5.98-.69 11.95-.91 17.92-.08 2.07-.96 3.18-2.75 4.13-15.37 8.14-30.68 16.39-46.03 24.58-5.64 3.01-11.34 5.9-16.99 8.9-3.87 2.06-4.28 1.6-6.07-1.4-5.37-9-11.02-17.82-16.47-26.77-7.04-11.56-14-23.16-20.96-34.76-4.34-7.23-8.68-14.47-12.89-21.79-.85-1.49-1.48-3.32-1.53-5.02-.19-6.13.03-12.28-.17-18.41-.08-2.38.7-3.93 2.65-5.06 5.07-2.95 10.13-5.91 15.2-8.84 3.3-1.91 6.62-3.79 10.07-5.75-.71-2.96-1.13-5.76-2.05-8.39-2.99-8.57-6.1-17.07-11.17-24.75-4.34-6.58-9.68-11.79-16.93-15.09-6.75-3.07-13.3-2.69-19.97.09-4.03 1.68-8 3.4-11.24 6.42-12.49 11.65-16.71 26.21-14.3 42.7.65 4.42 3 8.67 5.02 12.79 2.81 5.72 6.17 11.17 9.06 16.87 4.75 9.38 8.85 19.02 8.58 29.84-.18 7.38-1.04 14.61-6.5 20.33-1.31 1.37-2.64 2.72-4.22 4.34-1.51-1.29-2.84-2.42-4.23-3.61.67-.67 1.63-1.79 2.74-2.75 5.69-4.94 6.03-11.35 5.39-18.23-.91-9.75-4.47-18.54-8.91-27.1-4.3-8.29-8.26-16.74-11.02-25.71-.93-3.02-2.27-5.94-2.95-9.01-2.09-9.44-.31-18.49 3.26-27.3 2.11-5.22 4.35-10.34 8.09-14.7 5.57-6.48 12.09-11.34 20.7-12.93 1.89-.35 3.75-.83 5.63-1.26 6.8-1.58 13.15-.34 19.16 3.04 9.75 5.48 16.52 13.69 21.92 23.34 4.73 8.45 7.47 17.59 10.52 27.22zm-11.33 21.12c-2.31 1.51-4.21 2.75-6.54 4.26 13.9 23.32 27.66 46.39 41.53 69.64 14.59-10.05 30.54-17.5 45.54-26.45-12.85-23.7-25.48-46.97-38.19-70.42-2.02 1.08-3.88 2.07-5.84 3.12 2.58 7.48 7.29 13.76 8.93 21.27-.98.72-1.66 1.31-2.42 1.76-8.15 4.78-16.29 9.59-24.5 14.29-5.71 3.26-5.73 3.17-9.12-2.36-3.06-4.98-6.17-9.94-9.39-15.11zm94.98 49.59c.16-.23.31-.47.47-.7-15.92-27.69-31.85-55.37-48.08-83.59-.95 4.02-1.81 7.32-2.46 10.67-.15.77.25 1.75.65 2.49 1.92 3.6 3.91 7.17 5.9 10.74 10.15 18.19 20.27 36.39 30.5 54.53.76 1.35 2.08 2.76 3.47 3.28 3.08 1.16 6.36 1.76 9.55 2.58zm1.3 3.62c-2.68-1.01-5.25-1.79-7.64-2.93-3.12-1.48-5.76-.81-8.61.82-14.53 8.27-29.13 16.42-44.18 24.87-.18 3.99-.37 8.51-.6 13.67 20.72-12.37 40.74-24.32 61.03-36.43zm-113.94-51.6-.63.6c16.83 29.34 33.66 58.68 50.49 88.01.62-2.49.3-4.93.65-7.27.8-5.24-.82-9.5-3.66-13.91-6.56-10.17-12.59-20.69-18.82-31.08-5.72-9.53-11.68-18.92-17.04-28.64-2.6-4.73-6.98-5.69-10.99-7.71zm62.5-37.98c-6.43 3.46-12.43 6.7-19.12 10.3 2.36 1.18 3.79 1.74 5.06 2.56 2.47 1.59 4.54 1.39 4.54 1.39m-36.38 19.66c-2.66-1.23-4.91-2.32-7.22-3.3-.52-.22-1.32-.27-1.81-.02-2.55 1.27-5.34 2.13-7.64 4.27 3.38 1.44 6.5 2.77 9.72 4.15 2.17-1.58 4.38-3.21 6.95-5.1z"/>
    <path d="M564.2 307.64c3.21 5.17 6.33 10.12 9.39 15.11 3.39 5.53 3.41 5.62 9.12 2.36 8.2-4.69 16.34-9.5 24.5-14.29.76-.45 1.44-1.04 2.42-1.76-1.64-7.51-6.34-13.78-8.93-21.27 1.96-1.04 3.82-2.04 5.84-3.12 12.71 23.44 25.34 46.72 38.19 70.42-14.99 8.95-30.94 16.4-45.54 26.45-13.87-23.25-27.62-46.32-41.53-69.64 2.33-1.51 4.24-2.75 6.54-4.26z" class="st7"/>
    <path d="M659.18 357.23c-3.19-.83-6.47-1.43-9.54-2.58-1.39-.52-2.71-1.94-3.47-3.28-10.23-18.14-20.36-36.34-30.5-54.53-1.99-3.57-3.98-7.13-5.9-10.74-.4-.75-.8-1.73-.65-2.49.65-3.34 1.51-6.65 2.46-10.67 16.23 28.22 32.15 55.9 48.08 83.59-.16.23-.32.47-.48.7zm1.3 3.62c-20.3 12.11-40.32 24.06-61.03 36.42.23-5.16.42-9.67.6-13.67 15.05-8.45 29.65-16.6 44.18-24.87 2.85-1.62 5.49-2.3 8.61-.82 2.39 1.14 4.96 1.93 7.64 2.94zm-113.94-51.6c4.01 2.02 8.39 2.98 11 7.72 5.35 9.73 11.32 19.12 17.04 28.64 6.23 10.38 12.26 20.9 18.82 31.08 2.84 4.41 4.46 8.67 3.66 13.91-.36 2.34-.03 4.78-.65 7.27-16.83-29.34-33.66-58.68-50.49-88.01.2-.21.41-.41.62-.61zm43.38-27.68c6.68-3.6 12.69-6.84 19.12-10.3-.29 3.32-2.18 8.62-3.36 11.4 0 0-3.37 1.5-6.16 2.85m-36.38 19.66c-2.57 1.89-4.78 3.51-6.94 5.1-3.23-1.38-6.34-2.71-9.72-4.15 2.29-2.14 5.09-3.01 7.64-4.27.49-.24 1.29-.2 1.81.02 2.3.98 4.55 2.07 7.21 3.3z" class="st21"/>
    <path d="m128.31 89.69-14.08 101.15-2.43 212.37 130.06 104.63 50.59-10.56-8.36-54.75-84.64-151.01-10.8-190.85z"/>
    <path d="M240.57 513.21 106.78 405.58l2.51-215.42 14.79-106.3 69.32 12.62 10.96 193.61 84.52 150.79 9.21 60.32-57.52 12.01zM116.81 400.84l126.34 101.64 43.66-9.12-7.51-49.19-84.76-151.23-10.64-188.07-51.36-9.35-13.32 95.69-2.41 209.63z"/>
    <path d="m479.58 102.61-2.68 233.12-300.33 18.57 2.73-238.12-40.75-28.49 301.21-13.68z" class="st21"/>
    <path d="m171.52 359.61 2.76-240.84-50.61-35.39 317.59-14.42 43.33 31.12-2.76 240.35-310.31 19.18zm-18.09-267.6 30.89 21.6-2.7 235.38 290.35-17.95 2.59-225.89-36.31-26.07-284.82 12.93z"/>
    <path d="m476.9 335.73 113.91 106.91-24.32 32.64-314.63 31.56 22.03-28.92-97.32-123.62z" class="st21"/>
    <path d="m240.94 512.95 26.64-34.99L166.77 349.9l311.98-19.29 118.72 111.43-28.29 37.98-2.19.22-326.05 32.71zm-54.56-154.26 93.82 119.18-17.42 22.87 301.02-30.2 20.35-27.31-109.09-102.39-288.68 17.85z"/>
    <path d="M272.91 455.29h318.87v9.98H272.91z" transform="rotate(-6.35 432.4538074 460.37622847)"/>
    <path fill="#025bc7" d="m219.41 322.68 215.58-12.07c5.89.07 10.72-4.65 10.79-10.54l1.81-155.97c.07-5.89-4.65-10.72-10.54-10.79l-215.52 10.97c-5.89-.07-10.72 4.65-10.79 10.54l-1.86 157.07c-.08 5.89 4.64 10.72 10.53 10.79z"/>
    <path d="M219.52 327.67h-.17c-8.63-.1-15.57-7.2-15.47-15.83l1.86-157.07c.1-8.57 7.1-15.47 15.65-15.47h.01l215.54-10.97h.16c8.63.1 15.57 7.2 15.47 15.83l-1.81 155.97c-.05 4.18-1.72 8.09-4.71 11.01-2.95 2.88-6.82 4.46-10.94 4.46l-215.59 12.07zm1.87-178.4c-3.1 0-5.64 2.5-5.68 5.61l-1.86 157.07c-.04 3.08 2.41 5.63 5.47 5.74l215.55-12.06h.17c3.13.02 5.71-2.48 5.74-5.61l1.81-155.97c.04-3.09-2.41-5.63-5.48-5.74l-215.5 10.97h-.16c-.01-.01-.04-.01-.06-.01z"/>
    <path fill="#1026b0" d="m472.97 371.33 34.91 38.42-31.86 2.96 10.25 20.13-126.86 13.88-7.13-17.42-43.4 4.84-7.81-14.95-16.73 1.18-28.43-33.02z"/>
    <path d="m356.22 452.09-7.13-17.41-43.05 4.8-7.88-15.08-15.96 1.12-36.52-42.42 229.36-16.92 43.26 47.6-34.5 3.22 10.2 20.01-137.78 15.08zm-.75-28.16 7.14 17.43 115.94-12.69-10.31-20.23 29.22-2.72-26.55-29.22-204.77 15.11 20.34 23.62 17.48-1.23 7.74 14.82 43.77-4.89z"/>
    <path d="M147.64 86.56c-1.6.41-2.2 2.55-1.58 4.09.62 1.54 2.03 2.58 3.37 3.54 6.81 4.87 13.61 9.75 20.42 14.62 2.83 2.03 5.73 4.09 9.06 5.07 3.26.97 6.73.85 10.13.72 27.33-1.01 54.66-2.03 81.99-3.04 20.98-.78 41.96-1.56 62.95-2.33l137.61-5.1c1.18-.04 2.51-.16 3.23-1.09 1.09-1.4-.03-3.41-1.17-4.77-4.74-5.65-10.36-10.55-16.6-14.48-4.84-3.05-10.06-5.52-15.55-7.15-12.44-3.69-25.71-2.94-38.67-2.15-48.58 2.95-97.17 5.9-145.75 8.86-13.23.8-26.47 1.61-39.71 2.17-23.73 1.01-47.5 1.25-71.25.72" class="st7"/>
    <path d="M184.76 77.96h9.98v45.27h-9.98z" transform="rotate(-51.501 189.75029976 100.60533882)"/>
    <path d="M224.9 77.57h9.98v43.02h-9.98z" transform="rotate(-51.501 229.8879275 99.08611376)"/>
    <path d="M263.94 73.2h9.98v46.97h-9.98z" transform="rotate(-51.501 268.92869359 96.68742887)"/>
    <path d="M304.61 71.79h9.98v47.6h-9.98z" transform="rotate(-51.501 309.59849959 95.59076616)"/>
    <path d="M345.12 70.05h9.98v46.34h-9.98z" transform="rotate(-51.501 350.11446915 93.22388462)"/>
    <path d="M384.34 69.94h9.98v44.33h-9.98z" transform="rotate(-51.501 389.33747567 92.11282528)"/>
    <path d="M424.9 68.07h9.98v44.38h-9.98z" transform="rotate(-51.501 429.892372 90.26127067)"/>
    <path d="m171.5 360.58 2.78-241.82-50.61-35.39 317.59-14.42 43.33 31.12-2.76 240.34-310.33 20.17zM153.43 92.01l30.89 21.6-2.72 236.32 290.37-18.88 2.59-225.91-36.31-26.07-284.82 12.94z"/>
    <path d="M179.15 104.41h300.58v9.98H179.15z" transform="rotate(-2.563 329.29480832 109.1746639)"/>
    <path d="m116.51 406.74-9.43-7.07 37.15-49.55 33.09-.76.28 11.79-27.37.63z"/>
    <path d="M404.25 30.94h10V61.8h-10z" transform="rotate(-12.472 409.23684534 46.40106322)"/>
    <path d="M434.42 40.76h28.04v10h-28.04z" transform="rotate(-77.526 448.43485457 45.75944898)"/>
    <path d="M464.31 51.76h34.18v10h-34.18z" transform="rotate(-55.973 481.39260617 56.7517259)"/>
    <path d="M492.74 80.84h28.79v10h-28.79z" transform="rotate(-21.093 507.21176431 85.82964215)"/>
    <path d="M499.22 121.22h27.5v10h-27.5z" transform="rotate(-6.332 513.19205227 126.19629999)"/>
    <path d="M508.32 151.96h10v31.29h-10z" transform="rotate(-85.825 513.3356944 167.6094641)"/>
    <path d="M366.98 35.35h10v30.12h-10z" transform="rotate(-25.97 371.96398179 50.39877206)"/>
    <path fill="#edbcd2" d="M84.85 183.15c3.87 3.78 7.62 7.45 11.49 11.23-2.32 3.45-4.52 6.71-6.78 10.06-4.37-2.84-8.11-6.18-12.5-8.69-3.8 5.29-8.39 8.69-15.05 7.06-4.41-1.08-8.03-3.96-9.83-12.65-7.46 3.44-13.76 1.88-18.5-4.7-2.34-3.25-2.58-9.46 2.48-14.98-.61-1.19-1.42-2.35-1.83-3.64-1.02-3.18-.66-6.29.87-9.29 1.46-2.86 3.61-5.09 6.3-6.81 3.94-2.53 8.84-2.07 11.9.95.35.34.78.59 1.24.94 4.18-3.11 8.63-3.32 13.28-1.22 4.57 2.07 7.59 5.21 7.46 10.83 4.9.78 8.74 3.32 10.92 7.83 2.17 4.47 2.07 8.87-1.45 13.08zM68.6 259.08c5.36.89 10.56 1.75 15.92 2.63.1 4.14.2 8.06.3 12.09-5.23.16-10.23-.43-15.28.02-.04 6.49-1.83 11.89-8.22 14.34-4.24 1.63-8.87 1.34-15.38-4.74-4.1 7.07-10.17 9.38-17.88 6.7-3.8-1.32-7.6-6.26-6.66-13.66-1.19-.62-2.53-1.11-3.61-1.93-2.68-2.02-4.19-4.77-4.68-8.09-.46-3.18 0-6.22 1.2-9.16 1.76-4.31 6.04-6.73 10.29-6 .48.08.98.04 1.56.06 1.61-4.93 5.14-7.63 10.17-8.56 4.94-.92 9.24-.06 12.39 4.6 4.46-2.15 9.08-2.27 13.48.18 4.37 2.42 6.84 6.08 6.4 11.52zm1.92 85.27c4.94-2.26 9.72-4.46 14.65-6.72 2.44 3.36 4.75 6.55 7.12 9.82-4.23 3.05-8.69 5.36-12.61 8.55 3.66 5.38 5.25 10.83 1.37 16.43-2.58 3.72-6.57 6.06-15.41 4.68.63 8.12-3.06 13.42-10.96 15.51-3.89 1.03-9.85-.92-13.28-7.55-1.34.15-2.72.49-4.08.42-3.37-.17-6.18-1.6-8.47-4.07-2.19-2.36-3.54-5.13-4.22-8.23-1-4.54 1.16-8.93 5.09-10.7.44-.2.84-.52 1.33-.83-1.47-4.97-.09-9.17 3.53-12.75 3.56-3.52 7.6-5.21 12.86-3.12 2.46-4.27 6.21-6.95 11.24-7.39 4.97-.43 9.1 1.21 11.84 5.95z"/>
    <path d="M184.77 63.55c-5.35 0-8.73-3-11.51-5.46-3.15-2.79-5.11-4.34-8.75-3.87l-.78-5.95c6.53-.86 10.4 2.57 13.51 5.32 3.15 2.79 5.11 4.35 8.75 3.87 3.64-.48 5.14-2.48 7.46-5.99 2.3-3.46 5.15-7.76 11.68-8.62 6.54-.85 10.4 2.57 13.51 5.32 3.15 2.79 5.11 4.35 8.75 3.87 3.64-.48 5.14-2.48 7.46-5.99 2.3-3.46 5.15-7.77 11.69-8.62 6.53-.86 10.4 2.57 13.51 5.32 3.15 2.79 5.11 4.35 8.75 3.87 3.64-.48 5.14-2.48 7.47-5.99 2.3-3.46 5.15-7.76 11.69-8.62 6.54-.85 10.4 2.57 13.51 5.32 3.15 2.79 5.11 4.35 8.76 3.87 3.65-.48 5.14-2.48 7.47-5.99 2.3-3.46 5.16-7.76 11.69-8.62l.78 5.95c-3.65.48-5.14 2.48-7.47 5.99-2.3 3.46-5.16 7.76-11.69 8.62-6.54.85-10.4-2.57-13.51-5.32-3.15-2.79-5.11-4.35-8.76-3.87-3.64.48-5.14 2.48-7.46 5.99-2.3 3.46-5.15 7.76-11.69 8.62-6.53.86-10.4-2.57-13.51-5.32-3.15-2.79-5.11-4.34-8.75-3.87-3.64.48-5.14 2.48-7.46 5.99-2.3 3.46-5.15 7.77-11.69 8.62-6.53.85-10.4-2.57-13.51-5.32-3.15-2.79-5.11-4.35-8.75-3.87-3.64.48-5.14 2.48-7.46 5.99-2.3 3.46-5.15 7.76-11.68 8.62-.7.1-1.37.14-2.01.14zm468.27 207.06c-2.18-2.96-4.65-3.31-8.85-3.65-4.14-.34-9.29-.77-13.19-6.08s-2.76-10.35-1.85-14.4c.92-4.1 1.34-6.57-.83-9.54-2.18-2.96-4.65-3.3-8.85-3.65-4.14-.34-9.29-.77-13.19-6.08-3.9-5.31-2.76-10.35-1.85-14.4.92-4.1 1.34-6.57-.83-9.53-2.17-2.96-4.65-3.3-8.84-3.65-4.14-.34-9.29-.77-13.18-6.08-3.9-5.31-2.76-10.35-1.85-14.4.92-4.1 1.34-6.57-.83-9.53-2.17-2.96-4.65-3.3-8.84-3.65-4.14-.34-9.29-.77-13.19-6.08s-2.76-10.35-1.85-14.4c.92-4.1 1.34-6.57-.83-9.53l4.84-3.55c3.9 5.31 2.76 10.35 1.85 14.4-.92 4.1-1.34 6.57.83 9.53s4.65 3.3 8.84 3.65c4.14.34 9.29.77 13.19 6.08 3.9 5.31 2.76 10.35 1.85 14.4-.92 4.1-1.34 6.57.83 9.53 2.17 2.96 4.65 3.3 8.84 3.65 4.14.34 9.29.77 13.18 6.08 3.9 5.31 2.76 10.35 1.85 14.4-.92 4.1-1.34 6.57.83 9.53 2.17 2.96 4.65 3.3 8.85 3.65 4.14.34 9.29.77 13.19 6.08s2.76 10.35 1.85 14.4c-.92 4.1-1.34 6.57.83 9.54s4.65 3.31 8.85 3.65c4.14.34 9.29.77 13.19 6.08l-4.84 3.55zm-177.1 251.61c-5.51 0-8.91-3.12-11.68-5.68-3.1-2.85-5.03-4.43-8.68-4.03l-.66-5.96c6.54-.73 10.35 2.77 13.4 5.58 3.1 2.85 5.03 4.44 8.68 4.03 3.65-.41 5.18-2.38 7.58-5.84 2.36-3.41 5.3-7.66 11.85-8.39 6.54-.73 10.35 2.77 13.4 5.58 3.1 2.85 5.02 4.44 8.68 4.03 3.65-.41 5.19-2.38 7.58-5.84 2.36-3.41 5.3-7.66 11.85-8.39 6.54-.74 10.35 2.77 13.4 5.58 3.1 2.85 5.02 4.44 8.68 4.03 3.65-.41 5.19-2.38 7.58-5.84 2.36-3.41 5.3-7.66 11.85-8.39 6.55-.73 10.35 2.77 13.41 5.58 3.1 2.85 5.03 4.44 8.68 4.03 3.65-.41 5.19-2.38 7.58-5.84 2.36-3.42 5.3-7.67 11.85-8.39l.66 5.96c-3.65.41-5.19 2.38-7.58 5.84-2.36 3.42-5.3 7.67-11.85 8.39-6.55.73-10.35-2.77-13.41-5.58-3.1-2.85-5.02-4.44-8.68-4.03-3.65.41-5.19 2.38-7.58 5.84-2.36 3.41-5.3 7.66-11.85 8.39-6.55.73-10.35-2.77-13.4-5.58-3.1-2.85-5.02-4.44-8.68-4.03-3.65.41-5.19 2.38-7.58 5.84-2.36 3.41-5.3 7.66-11.85 8.39-6.55.73-10.35-2.77-13.4-5.58-3.1-2.85-5.02-4.44-8.68-4.03-3.65.41-5.18 2.38-7.58 5.84-2.36 3.41-5.3 7.66-11.85 8.39-.59.07-1.17.1-1.72.1zm-304.33-4.14c-5.68-21.2-15.67-37.8-28.89-48-12.74-9.83-29.21-13.31-42.92-9.68.46 5.56-1.5 11.08-5.64 14.5-3.22 2.66-7.23 3.31-10.22 1.65-3.92-2.18-4.63-7.34-3.04-10.88 1.53-3.4 4.66-5.5 6.89-6.78 1.57-.9 3.2-1.7 4.88-2.39-.22-.51-.48-1-.76-1.46-2.86-4.66-8.46-8.01-15.36-9.17-15.01-2.54-31.39 6.45-37.3 20.48L33.72 464c7.06-16.75 25.9-27.1 43.83-24.06 8.61 1.46 15.7 5.81 19.47 11.95.53.87.99 1.77 1.37 2.69 15.46-4.02 33.84-.17 48 10.75 14.27 11.01 25 28.72 31.02 51.2l-5.8 1.55zm-77.8-55.55c-1.03.47-2.04.99-3.01 1.55-2.43 1.4-3.79 2.65-4.42 4.04-.52 1.15-.27 2.75.49 3.17.76.42 2.26-.02 3.49-1.03 2.27-1.88 3.34-4.77 3.45-7.73zm544.91-320.72c-2.23 0-4.45-.18-6.64-.54-11.54-1.92-21.4-9.03-25.95-18.05-13.53 1.01-28.27-4.95-37.37-15.52-10.92-12.68-12.45-28.35-11.81-39.26.92-15.65 6.46-30.95 16.04-44.26l4.87 3.5c-8.91 12.38-14.07 26.59-14.92 41.1-.57 9.81.76 23.84 10.37 35 7.53 8.74 19.47 13.89 30.69 13.54-.13-.6-.24-1.2-.33-1.81-.65-4.55.2-8.54 2.46-11.54 2.97-3.94 8.41-5.78 12.94-4.39 2.83.87 5.08 2.96 6.18 5.75 1.14 2.9.92 6.21-.6 8.86-2.12 3.71-6.44 6.53-12.2 8 4.07 6.52 11.83 11.69 20.61 13.15 11.85 1.97 25.01-2.42 32.76-10.92l4.44 4.04c-7.62 8.38-19.7 13.35-31.54 13.35zm-22.78-36.68c-1.98 0-4 1.13-5.01 2.47-1.3 1.72-1.74 4.1-1.31 7.08.09.65.23 1.3.39 1.94.06-.01.12-.03.18-.04 4.51-1.01 7.89-2.96 9.26-5.36.61-1.07.7-2.48.22-3.68-.3-.77-.96-1.78-2.36-2.21-.44-.13-.91-.2-1.37-.2z" class="st8"/>
    <path d="M606.67 431.69h35.04v10h-35.04z" transform="matrix(.1699 -.9855 .9855 .1699 87.7893 977.6007)"/>
    <path d="M645.27 414.19h10v30.03h-10z" transform="matrix(.9293 -.3694 .3694 .9293 -112.5569 270.5729)"/>
    <path d="M657.52 394.7h10v20.37h-10z" transform="rotate(-66 662.54641223 404.90848147)"/>
    <path d="M43.35 122.1c-8.27 0-16.54-2.04-23.69-6.14l2.99-5.2c13.01 7.47 30.29 7.12 42.98-.88 11.47-7.23 18.93-20.52 19.44-34.06-3.71.49-7.83.36-11.6-1.5-3.51-1.74-6.19-5.27-6.99-9.2-.66-3.24.07-6.29 2.05-8.59 1.74-2.02 4.29-3.22 7.18-3.37 3.43-.17 6.95 1.1 9.43 3.43 2.9 2.72 4.75 6.68 5.53 11.79 24.6-7.53 44.8-28.22 51.66-53.03l5.78 1.6c-7.51 27.19-29.89 49.78-57 57.56h-.02c-.07 15.99-8.72 31.91-22.27 40.44-7.54 4.75-16.51 7.15-25.47 7.15zm33.02-62.97c-.11 0-.22 0-.33.01-.88.05-2.11.31-2.96 1.3-.95 1.1-.91 2.5-.71 3.48.42 2.09 1.94 4.11 3.77 5.02 2.62 1.3 5.77 1.3 8.68.85-.52-4.01-1.79-6.98-3.77-8.84-1.22-1.13-2.98-1.82-4.68-1.82z" class="st8"/>
    <path d="M401.73 149.87c3.38-.96 6.83-1.72 10.35-2.25 1.76-.27 3.53-.48 5.31-.63 1.78-.14 3.57-.29 5.5-.2 1.88.36 3.85.95 5.61 2.11 1.78 1.15 3.13 2.87 3.96 4.63.85 1.77 1.31 3.61 1.62 5.4.28 1.8.47 3.57.55 5.36.34 7.14-.71 14.11-1.74 21.01.33-6.97.66-14.01-.37-20.8-.54-3.36-1.25-6.82-2.86-9.45-.81-1.31-1.83-2.33-3.07-2.96-1.24-.65-2.72-.95-4.29-1.09-1.53-.4-3.24-.62-4.95-.82-1.71-.2-3.43-.34-5.16-.43-3.47-.19-6.96-.15-10.46.12zm200.2 218.24c2.76-2.13 5.55-4.24 8.37-6.32 6.53-2.23 13.09-4.31 19.67-6.25-6.05 3.25-12.01 6.62-17.89 10.11-3.39.78-6.77 1.6-10.15 2.46zM227.55 170.79c.99 4.92 1.9 9.86 2.71 14.84-.5 9.99-1.38 19.94-2.61 29.82-.19-9.95-.72-19.87-1.64-29.73.61-4.96 1.11-9.93 1.54-14.93z" class="st21"/>
    <path d="m356.31 283.21-25.36-37.54-24.68 37.34-15.56.05-24.61-98.44 21.95-5.49 16.4 65.6 19.98-30.24 12.73-.05 19.8 29.31 12.12-64.53 22.24 4.18-18.73 99.76z"/>
    <path d="M251.42 173.95h52.94v22.63h-52.94z" transform="rotate(-13.17 277.90891106 185.25320035)"/>
    <path d="M367.86 151.2h22.63v55.79h-22.63z" transform="rotate(-81.616 379.16749361 179.09751647)"/>
    <path d="M287.35 259.3h22.63v45.48h-22.63z" transform="matrix(.00816 -1 1 .00816 14.2038 578.3918)"/>
    <path d="M342.63 270.11h44.91v22.63h-44.91z" transform="rotate(-9.069 365.20128063 281.51025386)"/>
    <path d="M398.55 209.7h26.73v10h-26.73z" transform="matrix(.9605 -.2784 .2784 .9605 -43.4863 123.1623)"/>
    <path d="M407.49 228.11h10v21.55h-10z" transform="rotate(-88.023 412.4842945 238.88761892)"/>
    <path d="M402.25 251.34h10v23.58h-10z" transform="rotate(-55.054 407.22922505 263.12056233)"/>
    <path d="M241.89 213.66h10v26.7h-10z" transform="rotate(-66.896 246.89402125 227.00457416)"/>
    <path d="M233.1 244.3h22.84v10H233.1z" transform="rotate(-3.714 244.75007425 249.36674587)"/>
    <path d="M236.19 269.46h28.85v10h-28.85z" transform="rotate(-31.66 250.6141023 274.4611896)"/>
  </g>
</svg>